<svg width="104" height="26" viewBox="0 0 104 26" fill="none" xmlns="http://www.w3.org/2000/svg">
<path d="M28.7785 22.6036C28.9166 23.5978 28.5404 24.5473 27.8589 25.1424C27.7324 25.2542 27.5954 25.3523 27.4492 25.4366C27.3169 25.5119 27.1788 25.5768 27.0326 25.6281C26.7011 25.7455 26.3559 25.7888 26.0163 25.7672C26.0071 25.7672 25.9978 25.7672 25.9887 25.7649C25.305 25.7159 24.6466 25.4058 24.1806 24.9099C23.4244 24.1062 23.4463 23.1075 23.4554 22.8989C23.4554 22.7985 23.4601 22.7006 23.4715 22.6036H15.2538C15.2654 22.7006 15.2699 22.7985 15.2699 22.8989C15.2792 23.1075 15.301 24.1062 14.5449 24.9099C14.0787 25.4058 13.4204 25.7159 12.7367 25.7649C12.7275 25.7672 12.7183 25.7672 12.709 25.7672C12.3696 25.7888 12.0243 25.7455 11.6928 25.6281C11.5466 25.5768 11.4085 25.5119 11.2761 25.4366C11.13 25.3523 10.993 25.2542 10.8664 25.1436C10.8653 25.1436 10.8653 25.1424 10.8653 25.1424C10.185 24.5462 9.80868 23.5978 9.9468 22.6036H6.98657C7.00613 22.5306 7.02685 22.4566 7.04641 22.3836C7.41472 21.0281 7.78302 19.6715 8.15132 18.3159L8.39302 18.3045L11.2209 18.1792C11.3486 18.1735 11.4465 18.0674 11.4407 17.942C11.435 17.8154 11.3302 17.7174 11.2002 17.7243L8.51847 17.8428L8.27793 17.8542C8.41144 17.3595 8.5461 16.8658 8.67961 16.3722L8.91325 16.3916L11.1841 16.5796H11.2036C11.3222 16.5796 11.4235 16.4896 11.4327 16.371C11.443 16.2457 11.3498 16.135 11.2232 16.1247L9.03525 15.9435L8.80161 15.9241C8.93741 15.4237 9.07323 14.9232 9.20904 14.4238L9.42541 14.507L11.58 15.3313C11.6065 15.3416 11.6352 15.3473 11.6629 15.3473C11.7549 15.3473 11.8424 15.2914 11.877 15.2014C11.9229 15.0839 11.8642 14.9517 11.7457 14.9061L9.54627 14.0635L9.32989 13.9815C10.5234 9.58778 11.7181 5.19409 12.9117 0.801514C13.7737 3.42816 14.6345 6.05481 15.4955 8.68032C16.1032 8.37479 17.52 7.74891 19.3546 7.77741H19.3707C21.2053 7.74891 22.6222 8.37479 23.2298 8.68032C24.0908 6.05481 24.9517 3.42816 25.8138 0.801514C27.0072 5.19409 28.202 9.58778 29.3954 13.9815L29.1791 14.0635L26.9796 14.9061C26.8611 14.9517 26.8012 15.0839 26.8473 15.2014C26.8829 15.2914 26.9704 15.3473 27.0625 15.3473C27.0901 15.3473 27.1177 15.3416 27.1453 15.3313L29.2999 14.507L29.5163 14.4238C29.6521 14.9232 29.788 15.4237 29.9237 15.9241L29.6901 15.9435L27.5022 16.1247C27.3756 16.135 27.2812 16.2457 27.2915 16.371C27.3019 16.4896 27.4031 16.5796 27.5205 16.5796H27.5402L29.8122 16.3916L30.0458 16.3722C30.1793 16.8658 30.3139 17.3595 30.4474 17.8542L30.2069 17.8428L27.524 17.7243C27.394 17.7196 27.2893 17.8154 27.2835 17.942C27.2777 18.0674 27.3767 18.1735 27.5034 18.1792L30.3324 18.3045L30.574 18.3159C30.9424 19.6715 31.3107 21.0281 31.679 22.3836C31.6985 22.4566 31.7192 22.5306 31.7387 22.6036H28.7785Z" fill="#F4E041"/>
<path d="M32.0382 22.8316L31.9783 22.6127L31.9161 22.3835L30.8135 18.3261L30.5742 18.3159L30.3325 18.3045L31.4385 22.3755H28.514L28.5496 22.6344C28.6589 23.4175 28.4242 24.1768 27.9534 24.724C27.8636 24.8289 27.7647 24.9258 27.6588 25.0124C27.6266 25.0398 27.5932 25.066 27.5598 25.09C27.4907 25.1424 27.4194 25.1892 27.3446 25.2313C27.2215 25.3032 27.0914 25.3647 26.9544 25.4126C26.7265 25.4935 26.4894 25.5368 26.2512 25.5437C26.1729 25.546 26.0947 25.5437 26.0164 25.5391C25.9404 25.5346 25.8644 25.5254 25.7885 25.5129C25.2499 25.4274 24.7354 25.1652 24.3487 24.7537C23.7065 24.0707 23.6708 23.2363 23.6858 22.8988C23.6858 22.7997 23.6903 22.7118 23.6996 22.6297L23.7295 22.3755H14.9949L15.0249 22.6297C15.0341 22.7118 15.0398 22.7997 15.0398 22.9079C15.0536 23.2363 15.018 24.0707 14.3757 24.7537C13.989 25.1652 13.4745 25.4274 12.937 25.5129C12.8612 25.5254 12.7852 25.5346 12.7092 25.5391C12.6309 25.5437 12.5527 25.546 12.4744 25.5437C12.235 25.5368 11.9979 25.4935 11.77 25.4126C11.6342 25.3647 11.5041 25.3043 11.3821 25.2325H11.381C11.3062 25.1902 11.2337 25.1424 11.1646 25.09C11.1312 25.066 11.0979 25.0398 11.0656 25.0124C10.9597 24.9258 10.8608 24.8289 10.771 24.724C10.3003 24.1768 10.0655 23.4175 10.1748 22.6344L10.2105 22.3755H7.28708L8.39313 18.3045L8.15144 18.3159L7.91089 18.3261L6.80828 22.3835L6.74613 22.6127L6.68628 22.8316H9.69255C9.61659 24.1711 10.3946 25.4115 11.6146 25.8424C12.677 26.2186 13.9223 25.9063 14.713 25.0649C15.4737 24.2554 15.5163 23.2728 15.5003 22.8988C15.5003 22.876 15.4991 22.8532 15.4991 22.8316H23.2254V22.8886C23.2081 23.2728 23.2507 24.2554 24.0115 25.0649C24.58 25.6691 25.3811 25.9997 26.1809 25.9997C26.4952 25.9997 26.8094 25.9484 27.1098 25.8424C28.3298 25.4115 29.1078 24.1711 29.0319 22.8316H32.0382ZM8.67972 16.372L8.44608 16.3527L8.03635 17.8644L8.27804 17.8541L8.51859 17.8428L8.91336 16.3914L8.67972 16.372ZM25.8346 0L25.594 0.730765C24.8758 2.92191 24.1565 5.11308 23.4383 7.30309L23.0919 8.3599C22.216 7.95177 20.9177 7.52197 19.3709 7.54933H19.3582C17.8068 7.52426 16.5084 7.95177 15.6326 8.3599L15.2862 7.30309C14.5679 5.11308 13.8498 2.92191 13.1304 0.730765L12.8899 0L9.11363 13.8982L9.33001 13.9815L9.54638 14.0635L12.9325 1.60176C13.5712 3.55007 14.21 5.49727 14.8476 7.44445L15.3599 9.00402L15.5992 8.88317C16.4233 8.4682 17.7481 7.97571 19.3547 8.00535H19.3743C20.9856 7.97799 22.3011 8.4682 23.1252 8.88317L23.3657 9.00402L23.8768 7.44445C24.5144 5.49727 25.1532 3.55007 25.7931 1.60176L29.1791 14.0635L29.3956 13.9815L29.6108 13.8982L25.8346 0ZM8.99277 14.3406L8.56808 15.9046L8.80172 15.924L9.03536 15.9434L9.42554 14.507L9.20916 14.4238L8.99277 14.3406ZM29.7316 14.3416L29.5165 14.4238L29.3001 14.507L29.6902 15.9434L29.9238 15.924L30.1564 15.9058L29.7316 14.3416ZM30.2784 16.3527L30.0459 16.372L29.8122 16.3914L30.207 17.8428L30.4476 17.8541L30.6881 17.8644L30.2784 16.3527Z" fill="black" fill-opacity="0.87"/>
<path d="M21.1869 14.9493C20.9164 14.9493 20.6978 14.7326 20.6978 14.4647V11.528C20.6978 11.2601 20.9164 11.0435 21.1869 11.0435C21.4573 11.0435 21.676 11.2601 21.676 11.528V14.4647C21.676 14.7315 21.4573 14.9493 21.1869 14.9493Z" fill="black" fill-opacity="0.87"/>
<path d="M17.8254 14.4365C17.5572 14.4649 17.3155 14.2722 17.2868 14.0055L17.0485 11.7893C17.0197 11.5236 17.2143 11.2842 17.4836 11.2557C17.7518 11.2272 17.9935 11.4199 18.0222 11.6867L18.2604 13.9029C18.2893 14.1696 18.0947 14.4079 17.8254 14.4365Z" fill="black" fill-opacity="0.87"/>
<path d="M11.875 15.2013C11.8405 15.2914 11.7531 15.3472 11.661 15.3472C11.6333 15.3472 11.6046 15.3416 11.5781 15.3313L9.42353 14.507L9.20715 14.4238L8.99077 14.3406L5.86019 13.1424C5.7405 13.0968 5.6818 12.9646 5.72783 12.8471C5.77388 12.7297 5.90738 12.6716 6.02593 12.7172L9.11162 13.8982L9.328 13.9814L9.54437 14.0635L11.7438 14.9061C11.8624 14.9517 11.9211 15.0839 11.875 15.2013Z" fill="black" fill-opacity="0.87"/>
<path d="M11.4305 16.3708C11.4213 16.4894 11.3201 16.5795 11.2015 16.5795H11.1819L8.91112 16.3914L8.67748 16.372L8.44384 16.3526L5.07273 16.0733C4.94612 16.063 4.85174 15.9525 4.86326 15.827C4.8736 15.7017 4.98295 15.6081 5.11185 15.6196L8.56584 15.9046L8.79948 15.9239L9.03312 15.9433L11.2211 16.1246C11.3477 16.1348 11.4409 16.2455 11.4305 16.3708Z" fill="black" fill-opacity="0.87"/>
<path d="M11.4389 17.9422C11.4446 18.0677 11.3468 18.1736 11.219 18.1793L8.39117 18.3047L8.14948 18.3162L7.90893 18.3264L5.09486 18.4519H5.0845C4.9625 18.4519 4.86007 18.356 4.85547 18.2341C4.84971 18.1075 4.94754 18.0015 5.07414 17.9958L8.03437 17.8647L8.27607 17.8545L8.51662 17.8431L11.1983 17.7245C11.3284 17.7176 11.4331 17.8157 11.4389 17.9422Z" fill="black" fill-opacity="0.87"/>
<path d="M32.8614 13.1424L29.7297 14.3417L29.5144 14.4238L29.2981 14.507L27.1435 15.3313C27.1159 15.3416 27.0882 15.3472 27.0606 15.3472C26.9686 15.3472 26.881 15.2914 26.8453 15.2013C26.7994 15.0839 26.8591 14.9517 26.9777 14.9061L29.1772 14.0635L29.3936 13.9814L29.6088 13.8982L32.6956 12.7172C32.813 12.6716 32.9477 12.7297 32.9937 12.8471C33.0386 12.9646 32.9799 13.0968 32.8614 13.1424Z" fill="black" fill-opacity="0.87"/>
<path d="M33.8567 15.8273C33.867 15.9527 33.7726 16.0633 33.646 16.0735L30.2749 16.3529L30.0423 16.3723L29.8087 16.3916L27.5367 16.5797H27.5172C27.3998 16.5797 27.2985 16.4897 27.2881 16.3711C27.2777 16.2457 27.3722 16.1351 27.4987 16.1248L29.6867 15.9436L29.9204 15.9242L30.1528 15.906L33.608 15.6198C33.7346 15.6072 33.8463 15.7018 33.8567 15.8273Z" fill="black" fill-opacity="0.87"/>
<path d="M33.8649 18.2338C33.8591 18.3558 33.7578 18.4516 33.6347 18.4516H33.6243L30.8102 18.3262L30.5709 18.3159L30.3292 18.3045L27.5002 18.1792C27.3736 18.1734 27.2745 18.0674 27.2803 17.942C27.2861 17.8154 27.3908 17.7196 27.5209 17.7243L30.2038 17.8428L30.4443 17.8542L30.6848 17.8645L33.6451 17.9955C33.7728 18.0012 33.8706 18.1073 33.8649 18.2338Z" fill="black" fill-opacity="0.87"/>
<path d="M25.9209 23.5796C26.0087 23.8304 26.0849 24.136 26.1093 24.486C26.1381 24.8976 26.0861 25.2555 26.0145 25.5393L25.9209 23.5796Z" fill="white"/>
<path d="M26.0155 25.7672C25.9971 25.7672 25.9786 25.7649 25.9603 25.7604C25.8372 25.7306 25.7612 25.6064 25.7923 25.4845C25.8728 25.1595 25.9028 24.8289 25.8797 24.5017C25.8601 24.2178 25.8003 23.9328 25.7036 23.6546C25.6621 23.5361 25.7255 23.4061 25.8463 23.3651C25.9672 23.324 26.0972 23.3867 26.1386 23.5065C26.2491 23.8222 26.3159 24.1471 26.3389 24.4709C26.3654 24.846 26.3308 25.2233 26.2388 25.595C26.2123 25.6976 26.1179 25.7672 26.0155 25.7672Z" fill="black" fill-opacity="0.87"/>
<path d="M27.4216 23.4893C27.5627 23.7139 27.6852 23.9874 27.7234 24.3009C27.7697 24.6692 27.6864 24.9896 27.5719 25.2449L27.4216 23.4893Z" fill="white"/>
<path d="M27.5715 25.4718C27.5404 25.4718 27.5093 25.465 27.4782 25.4524C27.362 25.4011 27.309 25.2666 27.3608 25.1515C27.4829 24.8779 27.5266 24.6008 27.4932 24.3272C27.4632 24.0878 27.3736 23.8461 27.2251 23.6078C27.1583 23.5007 27.1916 23.3604 27.2999 23.2943C27.4081 23.2282 27.5497 23.2613 27.6164 23.3684C27.8006 23.6625 27.9121 23.967 27.9501 24.2725C27.9939 24.6282 27.9375 24.9862 27.7821 25.3361C27.7441 25.4217 27.6601 25.4718 27.5715 25.4718Z" fill="black" fill-opacity="0.87"/>
<path d="M12.803 23.5796C12.7152 23.8304 12.6389 24.136 12.6146 24.486C12.5857 24.8976 12.6377 25.2555 12.7093 25.5393L12.803 23.5796Z" fill="white"/>
<path d="M12.707 25.7673C12.6036 25.7673 12.5103 25.6976 12.4838 25.594C12.3917 25.2235 12.3572 24.845 12.3836 24.4698C12.4055 24.145 12.4734 23.8211 12.5839 23.5054C12.6254 23.3868 12.7566 23.3229 12.8762 23.364C12.996 23.405 13.0604 23.535 13.019 23.6536C12.9223 23.9317 12.8624 24.2156 12.8429 24.5006C12.8199 24.8278 12.8498 25.1585 12.9304 25.4834C12.9603 25.6054 12.8855 25.7296 12.7624 25.7593C12.7439 25.765 12.7255 25.7673 12.707 25.7673Z" fill="black" fill-opacity="0.87"/>
<path d="M11.302 23.4893C11.161 23.7139 11.0385 23.9874 11.0003 24.3009C10.9541 24.6692 11.0373 24.9896 11.1517 25.2449L11.302 23.4893Z" fill="white"/>
<path d="M11.1508 25.4718C11.0622 25.4718 10.9781 25.4205 10.9402 25.3361C10.7848 24.9872 10.7272 24.6293 10.7721 24.2725C10.8101 23.967 10.9217 23.6637 11.1059 23.3684C11.1727 23.2613 11.3142 23.2282 11.4224 23.2943C11.5306 23.3604 11.564 23.5007 11.4972 23.6078C11.3487 23.845 11.259 24.0878 11.229 24.3272C11.1957 24.6008 11.2394 24.8779 11.3614 25.1515C11.4132 25.2666 11.3603 25.4011 11.244 25.4524C11.2129 25.4661 11.1819 25.4718 11.1508 25.4718Z" fill="black" fill-opacity="0.87"/>
<path d="M8.35528 22.7985H0.244843C0.11018 22.7985 0 22.7111 0 22.6045C0 22.4977 0.11018 22.4104 0.244843 22.4104H8.35528C8.48994 22.4104 8.60012 22.4977 8.60012 22.6045C8.60012 22.7111 8.48994 22.7985 8.35528 22.7985Z" fill="black" fill-opacity="0.87"/>
<path d="M37.8843 22.8395H30.2593C30.1326 22.8395 30.0291 22.737 30.0291 22.6115C30.0291 22.4862 30.1326 22.3835 30.2593 22.3835H37.8843C38.011 22.3835 38.1144 22.4862 38.1144 22.6115C38.1144 22.737 38.012 22.8395 37.8843 22.8395Z" fill="black" fill-opacity="0.87"/>
<path d="M21.7042 18.6444C21.5384 19.0707 21.1552 19.5324 20.6684 19.6021C20.2184 19.6647 19.804 19.4264 19.5059 19.0559C19.4772 19.1345 19.4415 19.2155 19.3954 19.2964C19.3206 19.4288 18.919 20.083 18.2491 20.083H18.2306C17.593 20.0717 17.0395 19.496 16.9428 18.7424C16.9278 18.617 17.0165 18.503 17.143 18.4881C17.2674 18.4722 17.3848 18.5611 17.3998 18.6854C17.4734 19.2668 17.8843 19.6213 18.2387 19.6271H18.2479C18.6704 19.6271 18.9615 19.1312 18.9938 19.0742C19.1526 18.7914 19.1491 18.5018 19.1203 18.3115C19.11 18.2762 19.1008 18.2408 19.0915 18.2055C18.6485 18.2568 18.2664 18.1029 18.1961 17.8223C18.1167 17.5032 18.4724 17.1407 18.9915 17.013C19.5117 16.8853 19.9974 17.0403 20.0768 17.3596C20.1435 17.6229 19.9145 17.9147 19.5416 18.0812C19.5531 18.1233 19.5635 18.1736 19.5727 18.2282C19.7591 18.8416 20.2357 19.2007 20.6039 19.1505C20.8894 19.1094 21.1575 18.7822 21.2737 18.4813C21.3728 18.2259 21.359 17.9854 21.3302 17.8292C21.3083 17.705 21.3911 17.5864 21.5154 17.5636C21.642 17.5419 21.7606 17.624 21.7836 17.7471C21.8228 17.9615 21.8412 18.2898 21.7042 18.6444Z" fill="black" fill-opacity="0.87"/>
<path d="M43.8068 18.588C43.4133 18.588 43.2166 18.4796 43.2166 18.2628V9.33509H40.3837C40.2854 9.33509 40.2116 9.3006 40.1624 9.23162C40.1132 9.16264 40.0886 9.04932 40.0886 8.89166V8.65516C40.0886 8.4975 40.1132 8.38418 40.1624 8.3152C40.2116 8.24622 40.2854 8.21173 40.3837 8.21173H47.3036C47.4118 8.21173 47.4856 8.24622 47.5249 8.3152C47.5741 8.38418 47.5987 8.4975 47.5987 8.65516V8.89166C47.5987 9.04932 47.5741 9.16264 47.5249 9.23162C47.4856 9.3006 47.4118 9.33509 47.3036 9.33509H44.515V18.2628C44.515 18.4796 44.3183 18.588 43.9248 18.588H43.8068ZM49.7798 18.5584C49.6225 18.5584 49.5093 18.5239 49.4405 18.455C49.3716 18.386 49.3372 18.2727 49.3372 18.115V8.65516C49.3372 8.4975 49.3716 8.38418 49.4405 8.3152C49.5093 8.24622 49.6225 8.21173 49.7798 8.21173H54.9292C55.0374 8.21173 55.1111 8.24622 55.1505 8.3152C55.1997 8.38418 55.2243 8.4975 55.2243 8.65516V8.89166C55.2243 9.04932 55.1997 9.16264 55.1505 9.23162C55.1111 9.3006 55.0374 9.33509 54.9292 9.33509H50.6356V12.7052H54.4866C54.5948 12.7052 54.6685 12.7396 54.7079 12.8086C54.7571 12.8776 54.7816 12.9909 54.7816 13.1486V13.3851C54.7816 13.5427 54.7571 13.6561 54.7079 13.725C54.6685 13.794 54.5948 13.8285 54.4866 13.8285H50.6356V17.4351H54.944C55.0521 17.4351 55.1259 17.4696 55.1653 17.5385C55.2144 17.6075 55.2391 17.7208 55.2391 17.8785V18.115C55.2391 18.2727 55.2144 18.386 55.1653 18.455C55.1259 18.5239 55.0521 18.5584 54.944 18.5584H49.7798ZM59.5459 18.6471C58.9557 18.6471 58.4098 18.5781 57.9082 18.4402C57.4065 18.3022 57.0278 18.1347 56.7721 17.9376C56.5851 17.7997 56.4917 17.6765 56.4917 17.5681C56.4917 17.4499 56.5556 17.2873 56.6835 17.0803C56.8212 16.8734 56.9294 16.7699 57.0081 16.7699C57.0474 16.7699 57.1507 16.8192 57.318 16.9177C57.6228 17.0852 57.9474 17.2281 58.2918 17.3464C58.6459 17.4646 59.0639 17.5238 59.5459 17.5238C60.1163 17.5238 60.5788 17.3661 60.9329 17.0508C61.2967 16.7256 61.4788 16.3019 61.4788 15.7796C61.4788 15.415 61.3804 15.1145 61.1837 14.878C60.9869 14.6316 60.7459 14.4395 60.4607 14.3015C60.1852 14.1537 59.782 13.9763 59.2508 13.7694C58.6803 13.5427 58.2278 13.3358 57.8934 13.1486C57.5589 12.9614 57.2737 12.6855 57.0377 12.3208C56.8016 11.9464 56.6835 11.4586 56.6835 10.8575C56.6835 10.3254 56.8163 9.85242 57.0819 9.43856C57.3572 9.02469 57.7409 8.70443 58.2328 8.47779C58.7344 8.2413 59.3099 8.12305 59.9591 8.12305C60.2934 8.12305 60.6673 8.17232 61.0804 8.27086C61.4935 8.35954 61.8131 8.48272 62.0395 8.64038C62.2361 8.75863 62.3345 8.88673 62.3345 9.02469C62.3345 9.13308 62.2705 9.29075 62.1427 9.49768C62.0247 9.70461 61.9312 9.80808 61.8624 9.80808C61.8131 9.80808 61.7393 9.78344 61.6411 9.73418C61.5526 9.68491 61.4935 9.65041 61.464 9.63071C60.9721 9.3745 60.4607 9.2464 59.9296 9.2464C59.359 9.2464 58.8967 9.39421 58.5426 9.68983C58.1982 9.98545 58.0262 10.3944 58.0262 10.9167C58.0262 11.2517 58.1097 11.5227 58.277 11.7296C58.4541 11.9365 58.6508 12.0942 58.8672 12.2026C59.0934 12.3011 59.4819 12.4588 60.0328 12.6756C60.623 12.9022 61.1049 13.1239 61.4788 13.3407C61.8525 13.5477 62.1672 13.8531 62.4231 14.2572C62.6887 14.6513 62.8214 15.1588 62.8214 15.7796C62.8214 16.6665 62.5264 17.3661 61.9362 17.8785C61.346 18.3909 60.5492 18.6471 59.5459 18.6471ZM67.3364 18.588C66.9428 18.588 66.7462 18.4796 66.7462 18.2628V9.33509H63.9133C63.8149 9.33509 63.7411 9.3006 63.692 9.23162C63.6427 9.16264 63.6182 9.04932 63.6182 8.89166V8.65516C63.6182 8.4975 63.6427 8.38418 63.692 8.3152C63.7411 8.24622 63.8149 8.21173 63.9133 8.21173H70.8332C70.9413 8.21173 71.0151 8.24622 71.0545 8.3152C71.1036 8.38418 71.1283 8.4975 71.1283 8.65516V8.89166C71.1283 9.04932 71.1036 9.16264 71.0545 9.23162C71.0151 9.3006 70.9413 9.33509 70.8332 9.33509H68.0446V18.2628C68.0446 18.4796 67.8477 18.588 67.4544 18.588H67.3364ZM75.434 18.588C75.0406 18.588 74.8438 18.4796 74.8438 18.2628V9.33509H72.0109C71.9126 9.33509 71.8389 9.3006 71.7896 9.23162C71.7404 9.16264 71.7158 9.04932 71.7158 8.89166V8.65516C71.7158 8.4975 71.7404 8.38418 71.7896 8.3152C71.8389 8.24622 71.9126 8.21173 72.0109 8.21173H78.9308C79.0391 8.21173 79.1129 8.24622 79.1521 8.3152C79.2014 8.38418 79.2259 8.4975 79.2259 8.65516V8.89166C79.2259 9.04932 79.2014 9.16264 79.1521 9.23162C79.1129 9.3006 79.0391 9.33509 78.9308 9.33509H76.1422V18.2628C76.1422 18.4796 75.9455 18.588 75.552 18.588H75.434ZM79.7392 18.588C79.3163 18.588 79.1048 18.5042 79.1048 18.3367C79.1048 18.2874 79.1195 18.2185 79.149 18.1298L82.6459 8.41867C82.7049 8.261 82.9017 8.18217 83.236 8.18217H83.6639C84.018 8.18217 84.2149 8.261 84.2541 8.41867L87.7509 18.1446C87.7804 18.2135 87.7952 18.2776 87.7952 18.3367C87.7952 18.5042 87.5838 18.588 87.1608 18.588H87.0427C86.6985 18.588 86.5018 18.5092 86.4525 18.3515L85.582 15.9274H81.2442L80.4032 18.3515C80.354 18.5092 80.1573 18.588 79.813 18.588H79.7392ZM85.1836 14.8041L83.6344 10.3993C83.5853 10.2417 83.5263 9.95589 83.4574 9.54202H83.4278C83.3492 9.93619 83.2754 10.2219 83.2065 10.3993L81.6573 14.8041H85.1836ZM91.5767 18.6471C90.9865 18.6471 90.4406 18.5781 89.9389 18.4402C89.4372 18.3022 89.0585 18.1347 88.8028 17.9376C88.6158 17.7997 88.5225 17.6765 88.5225 17.5681C88.5225 17.4499 88.5863 17.2873 88.7143 17.0803C88.8519 16.8734 88.9601 16.7699 89.0389 16.7699C89.0781 16.7699 89.1814 16.8192 89.3487 16.9177C89.6535 17.0852 89.9781 17.2281 90.3225 17.3464C90.6766 17.4646 91.0946 17.5238 91.5767 17.5238C92.1471 17.5238 92.6095 17.3661 92.9636 17.0508C93.3274 16.7256 93.5095 16.3019 93.5095 15.7796C93.5095 15.415 93.4111 15.1145 93.2144 14.878C93.0176 14.6316 92.7766 14.4395 92.4914 14.3015C92.216 14.1537 91.8127 13.9763 91.2816 13.7694C90.711 13.5427 90.2585 13.3358 89.924 13.1486C89.5897 12.9614 89.3045 12.6855 89.0684 12.3208C88.8323 11.9464 88.7143 11.4586 88.7143 10.8575C88.7143 10.3254 88.8471 9.85242 89.1126 9.43856C89.388 9.02469 89.7716 8.70443 90.2635 8.47779C90.7651 8.2413 91.3406 8.12305 91.9898 8.12305C92.3241 8.12305 92.698 8.17232 93.1111 8.27086C93.5243 8.35954 93.8438 8.48272 94.0702 8.64038C94.2669 8.75863 94.3653 8.88673 94.3653 9.02469C94.3653 9.13308 94.3012 9.29075 94.1735 9.49768C94.0554 9.70461 93.9619 9.80808 93.8931 9.80808C93.8438 9.80808 93.7701 9.78344 93.6718 9.73418C93.5833 9.68491 93.5243 9.65041 93.4948 9.63071C93.0028 9.3745 92.4914 9.2464 91.9603 9.2464C91.3897 9.2464 90.9275 9.39421 90.5733 9.68983C90.229 9.98545 90.0569 10.3944 90.0569 10.9167C90.0569 11.2517 90.1404 11.5227 90.3078 11.7296C90.4848 11.9365 90.6815 12.0942 90.8979 12.2026C91.1241 12.3011 91.5126 12.4588 92.0636 12.6756C92.6537 12.9022 93.1356 13.1239 93.5095 13.3407C93.8832 13.5477 94.198 13.8531 94.4538 14.2572C94.7194 14.6513 94.8522 15.1588 94.8522 15.7796C94.8522 16.6665 94.5571 17.3661 93.9669 17.8785C93.3767 18.3909 92.58 18.6471 91.5767 18.6471ZM97.3752 18.588C96.9817 18.588 96.785 18.4796 96.785 18.2628V8.50735C96.785 8.29056 96.9817 8.18217 97.3752 8.18217H97.4932C97.8866 8.18217 98.0834 8.29056 98.0834 8.50735V13.0303H98.1424L101.772 8.38911C101.88 8.25115 102.146 8.18217 102.569 8.18217H102.716C102.884 8.18217 103.011 8.20188 103.1 8.2413C103.189 8.27086 103.233 8.3152 103.233 8.37432C103.233 8.46301 103.183 8.56155 103.085 8.66994L99.3966 13.2816L103.867 18.1446C103.956 18.2431 104 18.3219 104 18.3811C104 18.4599 103.951 18.5141 103.852 18.5436C103.754 18.5732 103.587 18.588 103.351 18.588H103.174C102.957 18.588 102.785 18.5781 102.657 18.5584C102.539 18.5387 102.441 18.4845 102.362 18.3958L98.1424 13.6364H98.0834V18.2628C98.0834 18.4796 97.8866 18.588 97.4932 18.588H97.3752Z" fill="black" fill-opacity="0.87"/>
</svg>
